<svg width="1500" height="600" viewBox="0 0 1500 600" fill="none" xmlns="http://www.w3.org/2000/svg">
<rect width="1500" height="600" fill="#1E65BD"/>
<g filter="url(#filter0_d_12_108)">
<path d="M255.728 154.56C258.228 153.86 262.928 152.96 266.228 152.56C269.528 152.16 310.028 151.86 356.228 151.96C438.228 152.06 440.428 152.16 447.728 154.26C451.828 155.36 457.928 157.66 461.228 159.36C464.528 160.96 469.928 164.36 473.228 166.86C476.528 169.36 480.828 173.26 482.728 175.56C484.628 177.86 487.928 182.56 490.028 185.96C492.128 189.26 494.928 195.56 496.228 199.76C497.628 204.06 499.228 211.76 499.828 216.76C500.528 222.86 500.728 253.46 500.428 306.06C500.128 374.96 499.828 386.96 498.528 392.56C497.628 396.16 496.128 401.06 495.128 403.56C494.128 406.06 491.528 411.16 489.328 414.96C486.828 419.06 482.228 424.56 477.728 428.76C472.328 433.86 467.728 436.96 461.228 440.16C456.328 442.56 448.628 445.26 444.228 446.26C436.928 447.86 429.028 448.06 352.228 448.06C273.928 448.06 267.728 447.96 260.228 446.16C255.828 445.16 249.528 443.26 246.228 441.86C242.928 440.46 237.528 437.46 234.228 435.06C230.928 432.76 225.928 428.36 223.228 425.46C220.428 422.46 216.528 417.36 214.528 414.06C212.528 410.76 210.128 406.06 209.228 403.56C208.328 401.06 206.928 396.16 206.028 392.56C204.828 387.26 204.428 374.06 203.728 321.56C203.328 286.06 203.328 247.36 203.728 235.56C204.228 221.66 205.128 211.46 206.228 206.56C207.228 202.46 209.428 195.86 211.228 192.06C212.928 188.26 216.528 182.26 219.128 178.76C221.628 175.36 226.328 170.56 229.428 167.96C232.628 165.46 238.828 161.76 243.228 159.56C247.628 157.46 253.228 155.16 255.728 154.56Z" fill="url(#paint0_linear_12_108)"/>
<g filter="url(#filter1_d_12_108)">
<path d="M313.928 210.96C315.528 210.16 318.428 209.16 320.528 208.66H320.428C322.528 208.16 336.628 207.76 351.728 207.66C373.228 207.56 380.328 207.86 384.228 209.06C386.928 209.86 391.028 211.76 393.228 213.36C395.528 214.96 398.328 218.36 399.728 221.16C401.828 225.26 402.228 227.66 402.728 246.56H395.728C390.428 246.56 388.628 246.16 388.228 245.06C387.928 244.26 387.728 240.56 387.728 236.86C387.728 231.96 387.228 229.36 386.028 227.66C385.028 226.26 382.728 224.56 380.928 223.86C378.628 222.86 370.828 222.56 351.728 222.56C330.828 222.56 325.028 222.86 322.228 224.06C320.328 224.86 318.228 226.56 317.528 227.86C316.828 229.06 316.028 233.66 315.228 246.06L300.728 246.56V238.86C300.728 234.56 301.328 228.86 302.128 226.06C303.028 223.26 305.328 219.06 307.428 216.66C309.528 214.26 312.428 211.66 313.928 210.96Z" fill="#1E65BE"/>
<path d="M288.328 395.56L288.628 324.86L288.828 254.06H415.328L415.828 395.56H288.328Z" fill="#1E65BE"/>
<path d="M261.428 261.76C263.628 259.86 266.728 257.66 268.428 256.96C270.028 256.26 271.728 255.66 272.128 255.66C272.528 255.66 272.928 286.86 272.928 394.56L269.128 393.06C267.128 392.26 263.828 390.26 261.928 388.76C259.928 387.26 255.659 380.85 252.428 374.06C249.196 367.27 249.68 283.173 252.428 276.06C253.265 273.892 254.928 270.66 254.928 270.66C256.228 267.76 259.228 263.76 261.428 261.76Z" fill="#1E65BE"/>
<path d="M430.928 394.56V325.06C430.928 279.46 431.228 255.56 431.928 255.56C432.428 255.56 434.328 256.36 436.128 257.26C437.928 258.16 441.306 259.588 443.206 260.988C445.306 262.588 451.782 265.818 452.428 277.06C453.074 288.301 452.728 321.06 452.728 321.06C452.928 350.66 452.728 367.06 451.928 371.06C451.328 374.36 450.128 378.46 449.428 380.06C448.628 381.76 446.228 384.86 444.128 386.96C442.128 389.06 439.228 391.36 437.928 392.06C436.528 392.76 434.428 393.66 430.928 394.56Z" fill="#1E65BE"/>
</g>
<path d="M368.428 306.96C373.328 305.56 377.628 304.16 378.228 304.06C378.828 303.86 381.428 303.76 384.228 303.86C388.428 304.06 389.428 304.46 390.728 306.76C392.128 309.26 392.128 309.56 389.728 312.06C388.328 313.46 385.028 315.36 382.228 316.26C379.528 317.06 375.028 318.66 372.228 319.66C367.528 321.36 366.828 322.06 359.128 333.76C352.228 344.36 350.528 346.26 346.928 347.86C344.628 348.76 342.028 349.56 341.228 349.56C340.028 349.56 339.728 347.86 339.728 340.56C339.728 333.26 339.428 331.56 338.228 331.56C337.428 331.56 334.128 332.26 330.928 333.16C326.428 334.46 324.428 334.56 321.528 333.66C318.728 332.86 316.028 330.66 311.728 325.56C308.428 321.66 305.728 318.26 305.728 317.76C305.728 317.36 307.428 316.46 309.428 315.86C311.528 315.16 313.628 314.56 314.228 314.56C314.828 314.56 317.028 315.86 319.228 317.56C321.428 319.26 324.128 320.66 325.228 320.56C326.328 320.56 333.128 318.56 340.228 316.16C347.328 313.66 352.928 311.66 352.528 311.66C352.028 311.56 348.428 312.26 344.528 313.16C338.328 314.46 336.828 314.56 334.928 313.36C333.728 312.66 332.728 311.46 332.728 310.86C332.728 310.16 335.028 308.86 337.728 307.96C342.428 306.46 343.428 306.46 351.228 307.96C359.728 309.56 359.728 309.56 368.428 306.96Z" fill="url(#paint1_linear_12_108)"/>
<path d="M1233.67 353.82L1233.57 253.82H1257.97L1258.07 262.72C1261.47 259.12 1265.54 256.287 1270.27 254.22C1275.01 252.087 1280.11 251.02 1285.57 251.02C1289.24 251.02 1292.91 251.554 1296.57 252.62L1286.97 277.22C1284.44 276.22 1281.91 275.72 1279.37 275.72C1275.44 275.72 1271.84 276.687 1268.57 278.62C1265.37 280.487 1262.81 283.054 1260.87 286.32C1259.01 289.52 1258.07 293.087 1258.07 297.02V353.82H1233.67Z" fill="#FDFDFD"/>
<path d="M1215.84 353.821H1187.74L1164.94 314.521L1150.94 331.221V353.821H1126.54V203.82H1150.94V293.321L1184.04 253.821H1215.94L1181.64 294.721L1215.84 353.821Z" fill="#FDFDFD"/>
<path d="M1089.71 323.72L1111.71 335.62C1107.11 341.887 1101.35 346.92 1094.41 350.72C1087.48 354.52 1079.91 356.42 1071.71 356.42C1062.51 356.42 1054.11 354.054 1046.51 349.32C1038.98 344.587 1032.95 338.254 1028.41 330.32C1023.95 322.32 1021.71 313.487 1021.71 303.82C1021.71 296.487 1023.01 289.654 1025.61 283.32C1028.21 276.92 1031.78 271.32 1036.31 266.52C1040.91 261.654 1046.25 257.854 1052.31 255.12C1058.38 252.387 1064.85 251.02 1071.71 251.02C1079.91 251.02 1087.48 252.92 1094.41 256.72C1101.35 260.52 1107.11 265.62 1111.71 272.02L1089.71 283.82C1087.38 281.154 1084.61 279.087 1081.41 277.62C1078.28 276.154 1075.05 275.42 1071.71 275.42C1066.91 275.42 1062.58 276.754 1058.71 279.42C1054.85 282.02 1051.78 285.487 1049.51 289.82C1047.25 294.087 1046.11 298.754 1046.11 303.82C1046.11 308.82 1047.25 313.487 1049.51 317.82C1051.78 322.087 1054.85 325.52 1058.71 328.12C1062.58 330.72 1066.91 332.02 1071.71 332.02C1075.18 332.02 1078.48 331.287 1081.61 329.82C1084.75 328.287 1087.45 326.254 1089.71 323.72Z" fill="#FDFDFD"/>
<path d="M985.339 253.82H1009.74V353.82H985.339L984.239 341.42C981.506 345.887 977.872 349.52 973.339 352.32C968.872 355.054 963.572 356.42 957.439 356.42C950.039 356.42 943.106 355.02 936.639 352.22C930.172 349.42 924.472 345.554 919.539 340.62C914.672 335.687 910.839 329.987 908.039 323.52C905.306 317.054 903.939 310.12 903.939 302.72C903.939 295.587 905.239 288.887 907.839 282.62C910.506 276.354 914.206 270.854 918.939 266.12C923.672 261.387 929.139 257.687 935.339 255.02C941.539 252.354 948.206 251.02 955.339 251.02C961.939 251.02 967.839 252.487 973.039 255.42C978.306 258.354 982.772 262.087 986.439 266.62L985.339 253.82ZM956.839 332.92C962.039 332.92 966.639 331.62 970.639 329.02C974.639 326.42 977.772 322.92 980.039 318.52C982.306 314.054 983.439 309.154 983.439 303.82C983.439 298.42 982.306 293.52 980.039 289.12C977.772 284.654 974.606 281.12 970.539 278.52C966.539 275.92 961.972 274.62 956.839 274.62C951.706 274.62 947.006 275.954 942.739 278.62C938.539 281.22 935.172 284.72 932.639 289.12C930.172 293.52 928.939 298.42 928.939 303.82C928.939 309.22 930.206 314.12 932.739 318.52C935.272 322.92 938.639 326.42 942.839 329.02C947.106 331.62 951.772 332.92 956.839 332.92Z" fill="#FDFDFD"/>
<path d="M812.464 403.821H788.064V253.821H812.464V266.521C815.731 261.987 819.731 258.321 824.464 255.521C829.264 252.654 834.864 251.221 841.264 251.221C848.597 251.221 855.431 252.587 861.764 255.321C868.097 258.054 873.664 261.854 878.464 266.721C883.331 271.521 887.097 277.087 889.764 283.421C892.497 289.754 893.864 296.554 893.864 303.821C893.864 311.087 892.497 317.921 889.764 324.321C887.097 330.721 883.331 336.354 878.464 341.221C873.664 346.021 868.097 349.787 861.764 352.521C855.431 355.254 848.597 356.621 841.264 356.621C834.864 356.621 829.264 355.221 824.464 352.421C819.731 349.554 815.731 345.854 812.464 341.321V403.821Z" fill="#FDFDFD"/>
<path d="M768.141 290.62V353.82H743.741V297.02C743.741 293.087 742.774 289.52 740.841 286.32C738.907 283.054 736.307 280.487 733.041 278.62C729.841 276.687 726.274 275.72 722.341 275.72C718.407 275.72 714.807 276.687 711.541 278.62C708.341 280.487 705.774 283.054 703.841 286.32C701.974 289.52 701.041 293.087 701.041 297.02V353.82H676.641L676.541 253.82H700.941L701.041 262.72C704.441 259.12 708.507 256.287 713.241 254.22C717.974 252.087 723.074 251.02 728.541 251.02C735.807 251.02 742.441 252.82 748.441 256.42C754.441 259.954 759.207 264.72 762.741 270.72C766.341 276.654 768.141 283.287 768.141 290.62Z" fill="#FDFDFD"/>
<path d="M564.923 316.82V253.82H589.323V310.421C589.323 314.354 590.29 317.954 592.223 321.22C594.157 324.42 596.723 326.987 599.923 328.921C603.19 330.787 606.757 331.72 610.623 331.72C614.623 331.72 618.223 330.787 621.423 328.921C624.623 326.987 627.19 324.42 629.123 321.22C631.057 317.954 632.023 314.354 632.023 310.421V253.82H656.423L656.523 353.82H632.123L632.023 344.72C628.557 348.32 624.457 351.187 619.723 353.32C614.99 355.387 609.923 356.421 604.523 356.421C597.257 356.421 590.623 354.654 584.623 351.12C578.623 347.52 573.823 342.754 570.223 336.82C566.69 330.82 564.923 324.154 564.923 316.82Z" fill="#FDFDFD"/>
<g filter="url(#filter2_d_12_108)">
<path d="M858.418 288.305C862.124 287.009 865.376 285.713 865.829 285.62C866.283 285.435 868.249 285.342 870.367 285.435C873.543 285.62 874.299 285.99 875.283 288.12C876.341 290.434 876.341 290.712 874.526 293.027C873.468 294.323 870.972 296.082 868.854 296.915C866.813 297.656 863.409 299.137 861.292 300.063C857.737 301.637 857.208 302.285 851.385 313.118C846.167 322.932 844.881 324.691 842.159 326.172C840.419 327.005 838.453 327.746 837.848 327.746C836.94 327.746 836.714 326.172 836.714 319.413C836.714 312.655 836.487 311.081 835.579 311.081C834.974 311.081 832.479 311.729 830.059 312.562C826.655 313.766 825.143 313.858 822.95 313.025C820.832 312.284 818.79 310.248 815.539 305.526C813.043 301.915 811.001 298.767 811.001 298.304C811.001 297.934 812.287 297.101 813.799 296.545C815.387 295.897 816.975 295.341 817.429 295.341C817.883 295.341 819.547 296.545 821.21 298.119C822.874 299.693 824.916 300.989 825.748 300.897C826.58 300.897 831.722 299.045 837.092 296.823C842.461 294.508 846.696 292.657 846.394 292.657C846.016 292.564 843.293 293.212 840.344 294.045C835.655 295.249 834.52 295.341 833.084 294.23C832.176 293.582 831.42 292.471 831.42 291.916C831.42 291.268 833.159 290.064 835.201 289.231C838.755 287.842 839.512 287.842 845.411 289.231C851.839 290.712 851.839 290.712 858.418 288.305Z" fill="url(#paint2_linear_12_108)"/>
</g>
</g>
<defs>
<filter id="filter0_d_12_108" x="192.328" y="144.84" width="1115.34" height="318.319" filterUnits="userSpaceOnUse" color-interpolation-filters="sRGB">
<feFlood flood-opacity="0" result="BackgroundImageFix"/>
<feColorMatrix in="SourceAlpha" type="matrix" values="0 0 0 0 0 0 0 0 0 0 0 0 0 0 0 0 0 0 127 0" result="hardAlpha"/>
<feOffset dy="4"/>
<feGaussianBlur stdDeviation="5.55"/>
<feComposite in2="hardAlpha" operator="out"/>
<feColorMatrix type="matrix" values="0 0 0 0 1 0 0 0 0 1 0 0 0 0 1 0 0 0 0.25 0"/>
<feBlend mode="normal" in2="BackgroundImageFix" result="effect1_dropShadow_12_108"/>
<feBlend mode="normal" in="SourceGraphic" in2="effect1_dropShadow_12_108" result="shape"/>
</filter>
<filter id="filter1_d_12_108" x="239.782" y="201.242" width="223.438" height="208.718" filterUnits="userSpaceOnUse" color-interpolation-filters="sRGB">
<feFlood flood-opacity="0" result="BackgroundImageFix"/>
<feColorMatrix in="SourceAlpha" type="matrix" values="0 0 0 0 0 0 0 0 0 0 0 0 0 0 0 0 0 0 127 0" result="hardAlpha"/>
<feOffset dy="4"/>
<feGaussianBlur stdDeviation="5.2"/>
<feComposite in2="hardAlpha" operator="out"/>
<feColorMatrix type="matrix" values="0 0 0 0 0.117647 0 0 0 0 0.392157 0 0 0 0 0.733333 0 0 0 0.3 0"/>
<feBlend mode="normal" in2="BackgroundImageFix" result="effect1_dropShadow_12_108"/>
<feBlend mode="normal" in="SourceGraphic" in2="effect1_dropShadow_12_108" result="shape"/>
</filter>
<filter id="filter2_d_12_108" x="797.001" y="271.399" width="93" height="70.3473" filterUnits="userSpaceOnUse" color-interpolation-filters="sRGB">
<feFlood flood-opacity="0" result="BackgroundImageFix"/>
<feColorMatrix in="SourceAlpha" type="matrix" values="0 0 0 0 0 0 0 0 0 0 0 0 0 0 0 0 0 0 127 0" result="hardAlpha"/>
<feOffset/>
<feGaussianBlur stdDeviation="7"/>
<feComposite in2="hardAlpha" operator="out"/>
<feColorMatrix type="matrix" values="0 0 0 0 0.117647 0 0 0 0 0.4 0 0 0 0 0.741176 0 0 0 0.57 0"/>
<feBlend mode="normal" in2="BackgroundImageFix" result="effect1_dropShadow_12_108"/>
<feBlend mode="normal" in="SourceGraphic" in2="effect1_dropShadow_12_108" result="shape"/>
</filter>
<linearGradient id="paint0_linear_12_108" x1="351.995" y1="151.94" x2="351.995" y2="448.06" gradientUnits="userSpaceOnUse">
<stop offset="0.427885" stop-color="white"/>
<stop offset="1" stop-color="#C2D8F4"/>
</linearGradient>
<linearGradient id="paint1_linear_12_108" x1="348.703" y1="303.82" x2="348.703" y2="349.56" gradientUnits="userSpaceOnUse">
<stop offset="0.427885" stop-color="white"/>
<stop offset="1" stop-color="#C2D8F4"/>
</linearGradient>
<linearGradient id="paint2_linear_12_108" x1="843.501" y1="285.399" x2="843.501" y2="327.746" gradientUnits="userSpaceOnUse">
<stop offset="0.427885" stop-color="#1E65BD"/>
<stop offset="1" stop-color="#94BDF2"/>
</linearGradient>
</defs>
</svg>
