<svg width="755" height="223" viewBox="0 0 755 223" fill="none" xmlns="http://www.w3.org/2000/svg">
<g filter="url(#filter0_d_1_38)">
<path d="M680.062 157.839L679.962 57.8387H704.362L704.462 66.7387C707.862 63.1387 711.928 60.3054 716.662 58.2387C721.395 56.1054 726.495 55.0387 731.962 55.0387C735.628 55.0387 739.295 55.572 742.962 56.6387L733.362 81.2387C730.828 80.2387 728.295 79.7387 725.762 79.7387C721.828 79.7387 718.228 80.7054 714.962 82.6387C711.762 84.5054 709.195 87.072 707.262 90.3387C705.395 93.5387 704.462 97.1054 704.462 101.039V157.839H680.062Z" fill="#FDFDFD"/>
<path d="M662.23 157.839H634.13L611.33 118.539L597.33 135.239V157.839H572.93V7.83875H597.33V97.3388L630.43 57.8388H662.33L628.03 98.7388L662.23 157.839Z" fill="#FDFDFD"/>
<path d="M536.102 127.739L558.102 139.639C553.502 145.905 547.736 150.939 540.802 154.739C533.869 158.539 526.302 160.439 518.102 160.439C508.902 160.439 500.502 158.072 492.902 153.339C485.369 148.605 479.336 142.272 474.802 134.339C470.336 126.339 468.102 117.505 468.102 107.839C468.102 100.505 469.402 93.672 472.002 87.3387C474.602 80.9387 478.169 75.3387 482.702 70.5387C487.302 65.672 492.636 61.872 498.702 59.1387C504.769 56.4054 511.236 55.0387 518.102 55.0387C526.302 55.0387 533.869 56.9387 540.802 60.7387C547.736 64.5387 553.502 69.6387 558.102 76.0387L536.102 87.8387C533.769 85.172 531.002 83.1054 527.802 81.6387C524.669 80.172 521.436 79.4387 518.102 79.4387C513.302 79.4387 508.969 80.772 505.102 83.4387C501.236 86.0387 498.169 89.5054 495.902 93.8387C493.636 98.1054 492.502 102.772 492.502 107.839C492.502 112.839 493.636 117.505 495.902 121.839C498.169 126.105 501.236 129.539 505.102 132.139C508.969 134.739 513.302 136.039 518.102 136.039C521.569 136.039 524.869 135.305 528.002 133.839C531.136 132.305 533.836 130.272 536.102 127.739Z" fill="#FDFDFD"/>
<path d="M431.729 57.8387H456.129V157.839H431.729L430.629 145.439C427.896 149.905 424.262 153.539 419.729 156.339C415.262 159.072 409.962 160.439 403.829 160.439C396.429 160.439 389.496 159.039 383.029 156.239C376.562 153.439 370.862 149.572 365.929 144.639C361.062 139.705 357.229 134.005 354.429 127.539C351.696 121.072 350.329 114.139 350.329 106.739C350.329 99.6054 351.629 92.9054 354.229 86.6387C356.896 80.372 360.596 74.872 365.329 70.1387C370.062 65.4054 375.529 61.7054 381.729 59.0387C387.929 56.372 394.596 55.0387 401.729 55.0387C408.329 55.0387 414.229 56.5054 419.429 59.4387C424.696 62.372 429.162 66.1054 432.829 70.6387L431.729 57.8387ZM403.229 136.939C408.429 136.939 413.029 135.639 417.029 133.039C421.029 130.439 424.162 126.939 426.429 122.539C428.696 118.072 429.829 113.172 429.829 107.839C429.829 102.439 428.696 97.5387 426.429 93.1387C424.162 88.672 420.996 85.1387 416.929 82.5387C412.929 79.9387 408.362 78.6387 403.229 78.6387C398.096 78.6387 393.396 79.972 389.129 82.6387C384.929 85.2387 381.562 88.7387 379.029 93.1387C376.562 97.5387 375.329 102.439 375.329 107.839C375.329 113.239 376.596 118.139 379.129 122.539C381.662 126.939 385.029 130.439 389.229 133.039C393.496 135.639 398.162 136.939 403.229 136.939Z" fill="#FDFDFD"/>
<path d="M258.854 207.839H234.454V57.8388H258.854V70.5388C262.121 66.0054 266.121 62.3388 270.854 59.5388C275.654 56.6721 281.254 55.2388 287.654 55.2388C294.987 55.2388 301.821 56.6054 308.154 59.3388C314.487 62.0721 320.054 65.8721 324.854 70.7388C329.721 75.5388 333.487 81.1054 336.154 87.4388C338.887 93.7721 340.254 100.572 340.254 107.839C340.254 115.105 338.887 121.939 336.154 128.339C333.487 134.739 329.721 140.372 324.854 145.239C320.054 150.039 314.487 153.805 308.154 156.539C301.821 159.272 294.987 160.639 287.654 160.639C281.254 160.639 275.654 159.239 270.854 156.439C266.121 153.572 262.121 149.872 258.854 145.339V207.839Z" fill="#FDFDFD"/>
<path d="M214.53 94.6387V157.839H190.13V101.039C190.13 97.1054 189.164 93.5387 187.23 90.3387C185.297 87.072 182.697 84.5054 179.43 82.6387C176.23 80.7054 172.664 79.7387 168.73 79.7387C164.797 79.7387 161.197 80.7054 157.93 82.6387C154.73 84.5054 152.164 87.072 150.23 90.3387C148.364 93.5387 147.43 97.1054 147.43 101.039V157.839H123.03L122.93 57.8387H147.33L147.43 66.7387C150.83 63.1387 154.897 60.3054 159.63 58.2387C164.364 56.1054 169.464 55.0387 174.93 55.0387C182.197 55.0387 188.83 56.8387 194.83 60.4387C200.83 63.972 205.597 68.7387 209.13 74.7387C212.73 80.672 214.53 87.3054 214.53 94.6387Z" fill="#FDFDFD"/>
<path d="M11.3132 120.839V57.8387H35.7132V114.439C35.7132 118.372 36.6799 121.972 38.6132 125.239C40.5466 128.439 43.1132 131.005 46.3132 132.939C49.5799 134.805 53.1466 135.739 57.0132 135.739C61.0132 135.739 64.6132 134.805 67.8132 132.939C71.0132 131.005 73.5799 128.439 75.5132 125.239C77.4466 121.972 78.4132 118.372 78.4132 114.439V57.8387H102.813L102.913 157.839H78.5132L78.4132 148.739C74.9466 152.339 70.8466 155.205 66.1132 157.339C61.3799 159.405 56.3132 160.439 50.9132 160.439C43.6466 160.439 37.0132 158.672 31.0132 155.139C25.0132 151.539 20.2132 146.772 16.6132 140.839C13.0799 134.839 11.3132 128.172 11.3132 120.839Z" fill="#FDFDFD"/>
<g filter="url(#filter1_d_1_38)">
<path d="M304.808 92.3233C308.513 91.0271 311.765 89.7309 312.219 89.6384C312.673 89.4532 314.639 89.3606 316.757 89.4532C319.933 89.6384 320.689 90.0087 321.672 92.1381C322.731 94.4527 322.731 94.7305 320.916 97.0451C319.857 98.3413 317.362 100.1 315.244 100.934C313.202 101.674 309.799 103.156 307.682 104.081C304.127 105.655 303.598 106.304 297.775 117.136C292.556 126.95 291.271 128.709 288.548 130.19C286.809 131.023 284.843 131.764 284.238 131.764C283.33 131.764 283.103 130.19 283.103 123.432C283.103 116.673 282.876 115.099 281.969 115.099C281.364 115.099 278.868 115.747 276.448 116.58C273.045 117.784 271.533 117.877 269.339 117.043C267.222 116.303 265.18 114.266 261.928 109.544C259.433 105.933 257.391 102.785 257.391 102.322C257.391 101.952 258.676 101.119 260.189 100.563C261.777 99.9152 263.365 99.3597 263.819 99.3597C264.273 99.3597 265.936 100.563 267.6 102.137C269.264 103.711 271.306 105.007 272.138 104.915C272.969 104.915 278.112 103.063 283.481 100.841C288.851 98.5264 293.086 96.6748 292.783 96.6748C292.405 96.5822 289.683 97.2303 286.733 98.0635C282.045 99.2671 280.91 99.3597 279.473 98.2487C278.566 97.6006 277.809 96.4896 277.809 95.9341C277.809 95.286 279.549 94.0824 281.591 93.2491C285.145 91.8604 285.901 91.8604 291.8 93.2491C298.228 94.7305 298.228 94.7305 304.808 92.3233Z" fill="url(#paint0_linear_1_38)"/>
</g>
</g>
<defs>
<filter id="filter0_d_1_38" x="0.213232" y="0.738745" width="753.848" height="222.2" filterUnits="userSpaceOnUse" color-interpolation-filters="sRGB">
<feFlood flood-opacity="0" result="BackgroundImageFix"/>
<feColorMatrix in="SourceAlpha" type="matrix" values="0 0 0 0 0 0 0 0 0 0 0 0 0 0 0 0 0 0 127 0" result="hardAlpha"/>
<feOffset dy="4"/>
<feGaussianBlur stdDeviation="5.55"/>
<feComposite in2="hardAlpha" operator="out"/>
<feColorMatrix type="matrix" values="0 0 0 0 1 0 0 0 0 1 0 0 0 0 1 0 0 0 0.25 0"/>
<feBlend mode="normal" in2="BackgroundImageFix" result="effect1_dropShadow_1_38"/>
<feBlend mode="normal" in="SourceGraphic" in2="effect1_dropShadow_1_38" result="shape"/>
</filter>
<filter id="filter1_d_1_38" x="243.391" y="75.4169" width="93" height="70.3473" filterUnits="userSpaceOnUse" color-interpolation-filters="sRGB">
<feFlood flood-opacity="0" result="BackgroundImageFix"/>
<feColorMatrix in="SourceAlpha" type="matrix" values="0 0 0 0 0 0 0 0 0 0 0 0 0 0 0 0 0 0 127 0" result="hardAlpha"/>
<feOffset/>
<feGaussianBlur stdDeviation="7"/>
<feComposite in2="hardAlpha" operator="out"/>
<feColorMatrix type="matrix" values="0 0 0 0 0.117647 0 0 0 0 0.4 0 0 0 0 0.741176 0 0 0 0.57 0"/>
<feBlend mode="normal" in2="BackgroundImageFix" result="effect1_dropShadow_1_38"/>
<feBlend mode="normal" in="SourceGraphic" in2="effect1_dropShadow_1_38" result="shape"/>
</filter>
<linearGradient id="paint0_linear_1_38" x1="289.891" y1="89.4169" x2="289.891" y2="131.764" gradientUnits="userSpaceOnUse">
<stop offset="0.427885" stop-color="#1E65BD"/>
<stop offset="1" stop-color="#94BDF2"/>
</linearGradient>
</defs>
</svg>
