<svg width="733" height="201" viewBox="0 0 733 201" fill="none" xmlns="http://www.w3.org/2000/svg">
<path d="M669.618 150.372L669.518 50.3719H693.918L694.018 59.2719C697.418 55.6719 701.485 52.8386 706.218 50.7719C710.951 48.6386 716.051 47.5719 721.518 47.5719C725.185 47.5719 728.851 48.1052 732.518 49.1719L722.918 73.7719C720.385 72.7719 717.851 72.2719 715.318 72.2719C711.385 72.2719 707.785 73.2386 704.518 75.1719C701.318 77.0386 698.751 79.6052 696.818 82.8719C694.951 86.0719 694.018 89.6386 694.018 93.5719V150.372H669.618Z" fill="black"/>
<path d="M651.787 150.372H623.687L600.887 111.072L586.887 127.772V150.372H562.487V0.371948H586.887V89.872L619.987 50.372H651.887L617.587 91.272L651.787 150.372Z" fill="black"/>
<path d="M525.659 120.272L547.659 132.172C543.059 138.439 537.292 143.472 530.359 147.272C523.425 151.072 515.859 152.972 507.659 152.972C498.459 152.972 490.059 150.605 482.459 145.872C474.925 141.139 468.892 134.805 464.359 126.872C459.892 118.872 457.659 110.039 457.659 100.372C457.659 93.0386 458.959 86.2052 461.559 79.8719C464.159 73.4719 467.725 67.8719 472.259 63.0719C476.859 58.2052 482.192 54.4052 488.259 51.6719C494.325 48.9386 500.792 47.5719 507.659 47.5719C515.859 47.5719 523.425 49.4719 530.359 53.2719C537.292 57.0719 543.059 62.1719 547.659 68.5719L525.659 80.3719C523.325 77.7052 520.559 75.6386 517.359 74.1719C514.225 72.7052 510.992 71.9719 507.659 71.9719C502.859 71.9719 498.525 73.3052 494.659 75.9719C490.792 78.5719 487.725 82.0386 485.459 86.3719C483.192 90.6386 482.059 95.3052 482.059 100.372C482.059 105.372 483.192 110.039 485.459 114.372C487.725 118.639 490.792 122.072 494.659 124.672C498.525 127.272 502.859 128.572 507.659 128.572C511.125 128.572 514.425 127.839 517.559 126.372C520.692 124.839 523.392 122.805 525.659 120.272Z" fill="black"/>
<path d="M421.285 50.3719H445.685V150.372H421.285L420.185 137.972C417.452 142.439 413.819 146.072 409.285 148.872C404.819 151.605 399.519 152.972 393.385 152.972C385.985 152.972 379.052 151.572 372.585 148.772C366.119 145.972 360.419 142.105 355.485 137.172C350.619 132.239 346.785 126.539 343.985 120.072C341.252 113.605 339.885 106.672 339.885 99.2719C339.885 92.1386 341.185 85.4386 343.785 79.1719C346.452 72.9052 350.152 67.4052 354.885 62.6719C359.619 57.9386 365.085 54.2386 371.285 51.5719C377.485 48.9052 384.152 47.5719 391.285 47.5719C397.885 47.5719 403.785 49.0386 408.985 51.9719C414.252 54.9052 418.719 58.6386 422.385 63.1719L421.285 50.3719ZM392.785 129.472C397.985 129.472 402.585 128.172 406.585 125.572C410.585 122.972 413.719 119.472 415.985 115.072C418.252 110.605 419.385 105.705 419.385 100.372C419.385 94.9719 418.252 90.0719 415.985 85.6719C413.719 81.2052 410.552 77.6719 406.485 75.0719C402.485 72.4719 397.919 71.1719 392.785 71.1719C387.652 71.1719 382.952 72.5052 378.685 75.1719C374.485 77.7719 371.119 81.2719 368.585 85.6719C366.119 90.0719 364.885 94.9719 364.885 100.372C364.885 105.772 366.152 110.672 368.685 115.072C371.219 119.472 374.585 122.972 378.785 125.572C383.052 128.172 387.719 129.472 392.785 129.472Z" fill="black"/>
<path d="M248.41 200.372H224.01V50.372H248.41V63.072C251.677 58.5386 255.677 54.872 260.41 52.072C265.21 49.2053 270.81 47.772 277.21 47.772C284.544 47.772 291.377 49.1386 297.71 51.872C304.044 54.6053 309.61 58.4053 314.41 63.272C319.277 68.072 323.044 73.6386 325.71 79.972C328.444 86.3053 329.81 93.1053 329.81 100.372C329.81 107.639 328.444 114.472 325.71 120.872C323.044 127.272 319.277 132.905 314.41 137.772C309.61 142.572 304.044 146.339 297.71 149.072C291.377 151.805 284.544 153.172 277.21 153.172C270.81 153.172 265.21 151.772 260.41 148.972C255.677 146.105 251.677 142.405 248.41 137.872V200.372Z" fill="black"/>
<path d="M204.087 87.1719V150.372H179.687V93.5719C179.687 89.6386 178.72 86.0719 176.787 82.8719C174.853 79.6052 172.253 77.0386 168.987 75.1719C165.787 73.2386 162.22 72.2719 158.287 72.2719C154.353 72.2719 150.753 73.2386 147.487 75.1719C144.287 77.0386 141.72 79.6052 139.787 82.8719C137.92 86.0719 136.987 89.6386 136.987 93.5719V150.372H112.587L112.487 50.3719H136.887L136.987 59.2719C140.387 55.6719 144.453 52.8386 149.187 50.7719C153.92 48.6386 159.02 47.5719 164.487 47.5719C171.753 47.5719 178.387 49.3719 184.387 52.9719C190.387 56.5052 195.153 61.2719 198.687 67.2719C202.287 73.2052 204.087 79.8386 204.087 87.1719Z" fill="black"/>
<path d="M0.869578 113.372V50.3719H25.2696V106.972C25.2696 110.905 26.2362 114.505 28.1696 117.772C30.1029 120.972 32.6696 123.539 35.8696 125.472C39.1362 127.339 42.7029 128.272 46.5696 128.272C50.5696 128.272 54.1696 127.339 57.3696 125.472C60.5696 123.539 63.1362 120.972 65.0696 117.772C67.0029 114.505 67.9696 110.905 67.9696 106.972V50.3719H92.3696L92.4696 150.372H68.0696L67.9696 141.272C64.5029 144.872 60.4029 147.739 55.6696 149.872C50.9362 151.939 45.8696 152.972 40.4696 152.972C33.2029 152.972 26.5696 151.205 20.5696 147.672C14.5696 144.072 9.76958 139.305 6.16958 133.372C2.63624 127.372 0.869578 120.705 0.869578 113.372Z" fill="black"/>
<g filter="url(#filter0_d_1_37)">
<path d="M294.364 84.8565C298.07 83.5603 301.322 82.2641 301.775 82.1716C302.229 81.9864 304.195 81.8938 306.313 81.9864C309.489 82.1716 310.245 82.5419 311.229 84.6713C312.287 86.9859 312.287 87.2637 310.472 89.5783C309.413 90.8745 306.918 92.6336 304.8 93.4668C302.758 94.2075 299.355 95.6889 297.238 96.6147C293.683 98.1886 293.154 98.8367 287.331 109.669C282.113 119.483 280.827 121.242 278.105 122.723C276.365 123.557 274.399 124.297 273.794 124.297C272.886 124.297 272.66 122.723 272.66 115.965C272.66 109.206 272.433 107.632 271.525 107.632C270.92 107.632 268.425 108.28 266.005 109.114C262.601 110.317 261.089 110.41 258.896 109.576C256.778 108.836 254.736 106.799 251.484 102.077C248.989 98.4664 246.947 95.3185 246.947 94.8556C246.947 94.4853 248.233 93.652 249.745 93.0965C251.333 92.4484 252.921 91.8929 253.375 91.8929C253.829 91.8929 255.493 93.0965 257.156 94.6704C258.82 96.2444 260.862 97.5405 261.694 97.448C262.526 97.448 267.668 95.5963 273.038 93.3742C278.407 91.0596 282.642 89.208 282.34 89.208C281.961 89.1154 279.239 89.7635 276.29 90.5967C271.601 91.8003 270.466 91.8929 269.03 90.7819C268.122 90.1338 267.366 89.0228 267.366 88.4673C267.366 87.8192 269.105 86.6156 271.147 85.7823C274.701 84.3936 275.458 84.3936 281.356 85.7823C287.785 87.2637 287.785 87.2637 294.364 84.8565Z" fill="url(#paint0_linear_1_37)"/>
</g>
<defs>
<filter id="filter0_d_1_37" x="234.047" y="69.0501" width="90.8" height="68.1473" filterUnits="userSpaceOnUse" color-interpolation-filters="sRGB">
<feFlood flood-opacity="0" result="BackgroundImageFix"/>
<feColorMatrix in="SourceAlpha" type="matrix" values="0 0 0 0 0 0 0 0 0 0 0 0 0 0 0 0 0 0 127 0" result="hardAlpha"/>
<feOffset/>
<feGaussianBlur stdDeviation="6.45"/>
<feComposite in2="hardAlpha" operator="out"/>
<feColorMatrix type="matrix" values="0 0 0 0 0.999155 0 0 0 0 0.989285 0 0 0 0 0.989285 0 0 0 0.44 0"/>
<feBlend mode="normal" in2="BackgroundImageFix" result="effect1_dropShadow_1_37"/>
<feBlend mode="normal" in="SourceGraphic" in2="effect1_dropShadow_1_37" result="shape"/>
</filter>
<linearGradient id="paint0_linear_1_37" x1="279.447" y1="81.9501" x2="279.447" y2="124.297" gradientUnits="userSpaceOnUse">
<stop offset="0.427885" stop-color="white"/>
<stop offset="1" stop-color="#3A3F44"/>
</linearGradient>
</defs>
</svg>
