<svg width="298" height="297" viewBox="0 0 298 297" fill="none" xmlns="http://www.w3.org/2000/svg">
<path d="M52.8253 3.03033C55.3253 2.33033 60.0253 1.43033 63.3253 1.03033C66.6253 0.630331 107.125 0.330331 153.325 0.430331C235.325 0.530331 237.525 0.630331 244.825 2.73033C248.925 3.83033 255.025 6.13033 258.325 7.83033C261.625 9.43033 267.025 12.8303 270.325 15.3303C273.625 17.8303 277.925 21.7303 279.825 24.0303C281.725 26.3303 285.025 31.0303 287.125 34.4303C289.225 37.7303 292.025 44.0303 293.325 48.2303C294.725 52.5303 296.325 60.2303 296.925 65.2303C297.625 71.3303 297.825 101.93 297.525 154.53C297.225 223.43 296.925 235.43 295.625 241.03C294.725 244.63 293.225 249.53 292.225 252.03C291.225 254.53 288.625 259.63 286.425 263.43C283.925 267.53 279.325 273.03 274.825 277.23C269.425 282.33 264.825 285.43 258.325 288.63C253.425 291.03 245.725 293.73 241.325 294.73C234.025 296.33 226.125 296.53 149.325 296.53C71.0253 296.53 64.8253 296.43 57.3253 294.63C52.9253 293.63 46.6253 291.73 43.3253 290.33C40.0253 288.93 34.6253 285.93 31.3253 283.53C28.0253 281.23 23.0253 276.83 20.3253 273.93C17.5253 270.93 13.6253 265.83 11.6253 262.53C9.62527 259.23 7.22527 254.53 6.32527 252.03C5.42527 249.53 4.02527 244.63 3.12527 241.03C1.92527 235.73 1.52527 222.53 0.825269 170.03C0.425269 134.53 0.425269 95.8303 0.825269 84.0303C1.32527 70.1303 2.22527 59.9303 3.32527 55.0303C4.32527 50.9303 6.52527 44.3303 8.32527 40.5303C10.0253 36.7303 13.6253 30.7303 16.2253 27.2303C18.7253 23.8303 23.4253 19.0303 26.5253 16.4303C29.7253 13.9303 35.9253 10.2303 40.3253 8.03033C44.7253 5.93033 50.3253 3.63033 52.8253 3.03033Z" fill="url(#paint0_linear_1_49)"/>
<g filter="url(#filter0_d_1_49)">
<path d="M111.025 59.4303C112.625 58.6303 115.525 57.6303 117.625 57.1303H117.525C119.625 56.6303 133.725 56.2303 148.825 56.1303C170.325 56.0303 177.425 56.3303 181.325 57.5303C184.025 58.3303 188.125 60.2303 190.325 61.8303C192.625 63.4303 195.425 66.8303 196.825 69.6303C198.925 73.7303 199.325 76.1303 199.825 95.0303H192.825C187.525 95.0303 185.725 94.6303 185.325 93.5303C185.025 92.7303 184.825 89.0303 184.825 85.3303C184.825 80.4303 184.325 77.8303 183.125 76.1303C182.125 74.7303 179.825 73.0303 178.025 72.3303C175.725 71.3303 167.925 71.0303 148.825 71.0303C127.925 71.0303 122.125 71.3303 119.325 72.5303C117.425 73.3303 115.325 75.0303 114.625 76.3303C113.925 77.5303 113.125 82.1303 112.325 94.5303L97.8252 95.0303V87.3303C97.8252 83.0303 98.4252 77.3303 99.2252 74.5303C100.125 71.7303 102.425 67.5303 104.525 65.1303C106.625 62.7303 109.525 60.1303 111.025 59.4303Z" fill="#1E65BE"/>
<path d="M85.4252 244.03L85.7252 173.33L85.9252 102.53H212.425L212.925 244.03H85.4252Z" fill="#1E65BE"/>
<path d="M58.5252 110.23C60.7252 108.33 63.8252 106.13 65.5252 105.43C67.1252 104.73 68.8252 104.13 69.2252 104.13C69.6252 104.13 70.0252 135.33 70.0252 243.03L66.2252 241.53C64.2252 240.73 60.9252 238.73 59.0252 237.23C57.0252 235.73 52.7568 229.32 49.5252 222.53C46.2937 215.741 46.7771 131.643 49.5252 124.53C50.3627 122.363 52.0252 119.13 52.0252 119.13C53.3252 116.23 56.3252 112.23 58.5252 110.23Z" fill="#1E65BE"/>
<path d="M228.025 243.03V173.53C228.025 127.93 228.325 104.03 229.025 104.03C229.525 104.03 231.425 104.83 233.225 105.73C235.025 106.63 238.403 108.059 240.303 109.459C242.403 111.059 248.88 114.289 249.525 125.53C250.171 136.772 249.825 169.53 249.825 169.53C250.025 199.13 249.825 215.53 249.025 219.53C248.425 222.83 247.225 226.93 246.525 228.53C245.725 230.23 243.325 233.33 241.225 235.43C239.225 237.53 236.325 239.83 235.025 240.53C233.625 241.23 231.525 242.13 228.025 243.03Z" fill="#1E65BE"/>
</g>
<path d="M165.525 155.43C170.425 154.03 174.725 152.63 175.325 152.53C175.925 152.33 178.525 152.23 181.325 152.33C185.525 152.53 186.525 152.93 187.825 155.23C189.225 157.73 189.225 158.03 186.825 160.53C185.425 161.93 182.125 163.83 179.325 164.73C176.625 165.53 172.125 167.13 169.325 168.13C164.625 169.83 163.925 170.53 156.225 182.23C149.325 192.83 147.625 194.73 144.025 196.33C141.725 197.23 139.125 198.03 138.325 198.03C137.125 198.03 136.825 196.33 136.825 189.03C136.825 181.73 136.525 180.03 135.325 180.03C134.525 180.03 131.225 180.73 128.025 181.63C123.525 182.93 121.525 183.03 118.625 182.13C115.825 181.33 113.125 179.13 108.825 174.03C105.525 170.13 102.825 166.73 102.825 166.23C102.825 165.83 104.525 164.93 106.525 164.33C108.625 163.63 110.725 163.03 111.325 163.03C111.925 163.03 114.125 164.33 116.325 166.03C118.525 167.73 121.225 169.13 122.325 169.03C123.425 169.03 130.225 167.03 137.325 164.63C144.425 162.13 150.025 160.13 149.625 160.13C149.125 160.03 145.525 160.73 141.625 161.63C135.425 162.93 133.925 163.03 132.025 161.83C130.825 161.13 129.825 159.93 129.825 159.33C129.825 158.63 132.125 157.33 134.825 156.43C139.525 154.93 140.525 154.93 148.325 156.43C156.825 158.03 156.825 158.03 165.525 155.43Z" fill="url(#paint1_linear_1_49)"/>
<defs>
<filter id="filter0_d_1_49" x="36.8792" y="49.7125" width="223.438" height="208.718" filterUnits="userSpaceOnUse" color-interpolation-filters="sRGB">
<feFlood flood-opacity="0" result="BackgroundImageFix"/>
<feColorMatrix in="SourceAlpha" type="matrix" values="0 0 0 0 0 0 0 0 0 0 0 0 0 0 0 0 0 0 127 0" result="hardAlpha"/>
<feOffset dy="4"/>
<feGaussianBlur stdDeviation="5.2"/>
<feComposite in2="hardAlpha" operator="out"/>
<feColorMatrix type="matrix" values="0 0 0 0 0.117647 0 0 0 0 0.392157 0 0 0 0 0.733333 0 0 0 0.3 0"/>
<feBlend mode="normal" in2="BackgroundImageFix" result="effect1_dropShadow_1_49"/>
<feBlend mode="normal" in="SourceGraphic" in2="effect1_dropShadow_1_49" result="shape"/>
</filter>
<linearGradient id="paint0_linear_1_49" x1="149.093" y1="0.41095" x2="149.093" y2="296.53" gradientUnits="userSpaceOnUse">
<stop offset="0.427885" stop-color="white"/>
<stop offset="1" stop-color="#C2D8F4"/>
</linearGradient>
<linearGradient id="paint1_linear_1_49" x1="145.8" y1="152.291" x2="145.8" y2="198.03" gradientUnits="userSpaceOnUse">
<stop offset="0.427885" stop-color="white"/>
<stop offset="1" stop-color="#C2D8F4"/>
</linearGradient>
</defs>
</svg>
